<svg xmlns="http://www.w3.org/2000/svg" width="92" height="111" viewBox="0 0 92 111">
  <path fill="#000000" d="M 39.27,6.93 L 39.27,84.08 33.73,86.86 33.73,6.01"/>
  <path fill="#000000" d="M 39.27,6.93 L 40.66,7.85 38.35,9.24"/>
  <path fill="#000000" d="M 58.67,6.93 L 58.67,84.08 53.13,86.86 53.13,6.01"/>
  <path fill="#000000" d="M 58.67,6.93 L 60.06,7.85 57.75,9.24"/>
  <path fill="#000000" d="M 10.76,30.08 L 12.66,31.69 14.41,33.50 15.99,35.39 17.42,37.33 18.76,39.41 19.91,41.53 20.93,43.75 21.85,46.06 22.59,48.37 23.24,50.77 17.79,51.79 17.51,49.57 17.09,47.45 16.54,45.32 15.94,43.20 15.20,41.12 14.37,39.04 13.44,36.96 12.38,34.88 11.27,32.80 10.12,30.63"/>
  <path fill="#000000" d="M 23.24,50.77 L 22.78,52.85 21.02,54.01 18.94,53.55 17.79,51.79"/>
  <path fill="#000000" d="M 82.70,33.45 L 81.40,35.76 80.06,38.16 78.59,40.52 77.06,42.97 75.40,45.41 73.69,47.91 71.84,50.45 69.85,52.95 67.73,55.49 65.47,57.98 64.77,57.47 66.30,54.47 67.78,51.61 69.25,48.79 70.69,46.06 72.03,43.43 73.32,40.84 74.52,38.35 75.68,35.85 76.69,33.45 77.66,31.09"/>
  <path fill="#000000" d="M 77.48,31.55 L 82.70,33.45 77.89,30.58"/>
  <path fill="#000000" d="M 82.70,33.45 L 83.58,34.83 80.90,35.16"/>
</svg>