<svg xmlns="http://www.w3.org/2000/svg" width="92" height="111" viewBox="0 0 92 111">
  <path fill="#000000" d="M 35.57,6.93 L 35.57,84.55 30.03,87.32 30.03,6.01"/>
  <path fill="#000000" d="M 35.57,6.93 L 36.96,7.85 34.65,9.24"/>
  <path fill="#000000" d="M 58.21,6.93 L 58.21,84.55 52.67,87.32 52.67,6.01"/>
  <path fill="#000000" d="M 58.21,6.93 L 59.60,7.85 57.29,9.24"/>
  <path fill="#000000" d="M 58.30,33.40 L 60.43,35.67 62.55,37.93 64.73,40.19 66.94,42.46 69.30,44.68 71.75,46.85 74.29,49.02 76.97,51.14 79.74,53.22 82.65,55.30 79.00,60.15 76.14,57.75 73.41,55.30 70.82,52.81 68.42,50.22 66.16,47.63 64.03,45.00 62.14,42.32 60.38,39.59 58.86,36.78 57.61,33.86"/>
  <path fill="#000000" d="M 79.00,60.15 L 82.65,55.30 84.04,56.32"/>
  <path fill="#000000" d="M 26.75,34.74 L 26.33,37.05 25.55,39.45 24.44,41.90 23.01,44.44 21.30,47.08 19.22,49.85 16.86,52.76 14.18,55.81 11.13,58.95 7.67,62.19 7.07,61.58 9.79,57.80 12.24,54.24 14.41,50.96 16.35,47.91 17.93,45.05 19.22,42.41 20.19,40.06 20.84,37.88 21.16,36.04 21.21,34.51"/>
  <path fill="#000000" d="M 21.21,34.97 L 26.75,34.74 21.25,33.45"/>
  <path fill="#000000" d="M 26.75,34.74 L 28.09,35.76 25.73,37.01"/>
</svg>