<svg xmlns="http://www.w3.org/2000/svg" width="92" height="111" viewBox="0 0 92 111">
  <path fill="#000000" d="M 37.98,5.82 L 39.82,6.51 41.67,7.21 43.34,8.09 44.91,9.06 46.34,10.12 47.68,11.32 48.88,12.66 49.94,14.04 50.87,15.62 51.65,17.23 46.34,18.90 46.06,17.60 45.65,16.35 45.14,15.06 44.49,13.81 43.71,12.61 42.78,11.37 41.72,10.16 40.52,8.92 39.18,7.67 37.61,6.56"/>
  <path fill="#000000" d="M 51.65,17.23 L 51.42,19.31 49.85,20.70 47.72,20.51 46.34,18.90"/>
  <path fill="#000000" d="M 6.93,21.71 L 85.47,21.71 85.47,23.56 6.93,23.56"/>
  <path fill="#000000" d="M 85.47,21.71 L 74.38,22.64 79.93,17.09"/>
  <path fill="#000000" d="M 26.80,34.19 L 26.80,79.46 21.25,82.24 21.25,31.42"/>
  <path fill="#000000" d="M 24.02,34.19 L 68.38,34.19 68.38,36.04 24.02,36.04"/>
  <path fill="#000000" d="M 71.15,35.11 L 71.15,76.69 65.60,79.46 65.60,35.11"/>
  <path fill="#000000" d="M 65.60,34.19 L 68.38,31.88 73.46,36.04 71.15,37.88 65.60,35.11"/>
  <path fill="#000000" d="M 24.02,72.07 L 68.38,72.07 68.38,73.92 24.02,73.92"/>
</svg>