<svg xmlns="http://www.w3.org/2000/svg" width="92" height="111" viewBox="0 0 92 111">
  <path fill="#000000" d="M 48.97,7.85 L 48.97,83.62 43.43,83.62 43.43,6.93"/>
  <path fill="#000000" d="M 48.97,7.85 L 50.36,8.78 48.05,10.16"/>
  <path fill="#000000" d="M 7.39,81.77 L 85.01,81.77 85.01,83.62 7.39,83.62"/>
  <path fill="#000000" d="M 85.01,81.77 L 73.92,82.70 79.46,77.15"/>
  <path fill="#000000" d="M 16.72,20.97 L 18.90,23.93 20.93,27.17 22.78,30.63 24.49,34.33 26.10,38.25 27.58,42.41 28.97,46.75 30.26,51.28 31.42,56.04 32.48,60.98 27.03,61.91 26.29,57.06 25.41,52.39 24.49,47.91 23.47,43.61 22.36,39.50 21.21,35.57 19.96,31.79 18.66,28.18 17.37,24.72 16.03,21.39"/>
  <path fill="#000000" d="M 32.48,60.98 L 32.02,63.02 30.26,64.17 28.18,63.71 27.03,61.91"/>
  <path fill="#000000" d="M 76.37,24.44 L 75.54,26.38 74.52,28.83 73.37,31.74 72.03,35.16 70.50,39.04 68.84,43.43 66.94,48.33 64.86,53.64 62.55,59.46 59.97,65.70 59.18,65.47 60.89,58.91 62.51,52.85 64.08,47.36 65.51,42.32 66.81,37.79 67.96,33.77 68.98,30.26 69.85,27.21 70.55,24.67 71.15,22.59"/>
  <path fill="#000000" d="M 70.96,23.05 L 76.37,24.44 71.38,21.95"/>
  <path fill="#000000" d="M 76.37,24.44 L 77.39,25.78 74.71,26.29"/>
</svg>