<svg xmlns="http://www.w3.org/2000/svg" width="92" height="111" viewBox="0 0 92 111">
  <path fill="#000000" d="M 15.34,23.79 L 17.28,26.89 19.03,30.31 20.61,34.00 22.08,37.98 23.47,42.23 24.76,46.71 25.92,51.42 27.03,56.41 28.00,61.63 28.88,67.08 23.38,67.78 22.78,62.42 22.13,57.24 21.39,52.34 20.56,47.63 19.68,43.20 18.76,38.95 17.74,34.97 16.68,31.19 15.66,27.58 14.60,24.12"/>
  <path fill="#000000" d="M 28.88,67.08 L 28.32,69.12 26.47,70.18 24.44,69.62 23.38,67.78"/>
  <path fill="#000000" d="M 36.54,18.30 L 38.48,22.22 40.24,26.24 41.81,30.40 43.20,34.56 44.49,38.76 45.69,43.06 46.75,47.40 47.68,51.74 48.51,56.18 49.25,60.66 43.71,61.31 43.29,56.92 42.78,52.58 42.18,48.28 41.49,43.98 40.70,39.69 39.82,35.48 38.85,31.23 37.88,27.03 36.82,22.82 35.80,18.57"/>
  <path fill="#000000" d="M 49.25,60.66 L 48.65,62.69 46.80,63.71 44.77,63.11 43.71,61.31"/>
  <path fill="#000000" d="M 75.54,20.97 L 74.10,25.83 72.63,30.82 71.10,35.90 69.53,41.12 67.91,46.43 66.20,51.93 64.45,57.52 62.65,63.20 60.66,69.02 58.58,74.94 57.80,74.71 59.00,68.56 60.24,62.55 61.54,56.69 62.83,51.00 64.13,45.41 65.37,40.01 66.62,34.70 67.82,29.52 69.02,24.49 70.18,19.59"/>
  <path fill="#000000" d="M 70.04,20.05 L 75.54,20.97 70.36,18.80"/>
  <path fill="#000000" d="M 75.54,20.97 L 76.65,22.22 74.06,23.01"/>
  <path fill="#000000" d="M 7.85,73.46 L 84.55,73.46 84.55,75.31 7.85,75.31"/>
  <path fill="#000000" d="M 84.55,73.46 L 73.46,74.38 79.00,68.84"/>
</svg>