<svg xmlns="http://www.w3.org/2000/svg" width="92" height="111" viewBox="0 0 92 111">
  <path fill="#000000" d="M 30.49,9.24 L 30.49,79.93 24.95,79.93 24.95,6.47"/>
  <path fill="#000000" d="M 27.72,9.24 L 66.53,9.24 66.53,11.09 27.72,11.09"/>
  <path fill="#000000" d="M 69.30,10.16 L 69.30,81.31 63.76,81.31 63.76,10.16"/>
  <path fill="#000000" d="M 63.76,9.24 L 66.53,6.93 71.61,11.09 69.30,12.94 63.76,10.16"/>
  <path fill="#000000" d="M 27.72,26.80 L 66.53,26.80 66.53,28.64 27.72,28.64"/>
  <path fill="#000000" d="M 27.72,43.89 L 66.53,43.89 66.53,45.74 27.72,45.74"/>
  <path fill="#000000" d="M 27.72,61.45 L 66.53,61.45 66.53,63.29 27.72,63.29"/>
  <path fill="#000000" d="M 7.85,79.46 L 86.39,79.46 86.39,81.31 7.85,81.31"/>
  <path fill="#000000" d="M 86.39,79.46 L 75.31,80.39 80.85,74.84"/>
</svg>