<svg xmlns="http://www.w3.org/2000/svg" width="92" height="111" viewBox="0 0 92 111">
  <path fill="#000000" d="M 34.88,8.09 L 33.03,13.54 31.05,18.80 28.78,23.93 26.38,28.83 23.75,33.59 20.88,38.16 17.83,42.50 14.55,46.71 11.00,50.64 7.21,54.33 6.61,53.73 9.66,49.53 12.52,45.23 15.29,40.84 17.88,36.36 20.28,31.74 22.50,26.98 24.53,22.08 26.38,17.09 28.04,11.92 29.52,6.61"/>
  <path fill="#000000" d="M 29.38,7.02 L 34.88,8.09 29.75,5.82"/>
  <path fill="#000000" d="M 34.88,8.09 L 35.94,9.38 33.36,10.07"/>
  <path fill="#000000" d="M 22.18,30.95 L 82.24,30.95 82.24,32.80 22.18,32.80"/>
  <path fill="#000000" d="M 82.24,30.95 L 71.15,31.88 76.69,26.33"/>
  <path fill="#000000" d="M 12.94,69.30 L 79.00,69.30 79.00,71.15 12.94,71.15"/>
  <path fill="#000000" d="M 79.00,69.30 L 67.91,70.22 73.46,64.68"/>
</svg>