<svg xmlns="http://www.w3.org/2000/svg" width="92" height="111" viewBox="0 0 92 111">
  <path fill="#000000" d="M 16.63,18.48 L 16.63,81.31 11.09,84.08 11.09,15.71"/>
  <path fill="#000000" d="M 13.86,18.48 L 78.54,18.48 78.54,20.33 13.86,20.33"/>
  <path fill="#000000" d="M 81.31,19.40 L 81.31,78.54 75.77,81.31 75.77,19.40"/>
  <path fill="#000000" d="M 75.77,18.48 L 78.54,16.17 83.62,20.33 81.31,22.18 75.77,19.40"/>
  <path fill="#000000" d="M 48.97,18.48 L 48.97,75.77 43.43,75.77 43.43,18.48"/>
  <path fill="#000000" d="M 13.86,73.92 L 78.54,73.92 78.54,75.77 13.86,75.77"/>
  <path fill="#000000" d="M 22.31,29.71 L 24.26,31.88 26.10,34.28 27.77,36.91 29.34,39.69 30.77,42.69 32.16,45.83 33.40,49.11 34.56,52.58 35.62,56.23 36.59,59.97 31.19,61.08 30.49,57.43 29.75,53.87 28.97,50.50 28.09,47.22 27.12,44.12 26.10,41.12 25.04,38.25 23.93,35.48 22.78,32.80 21.62,30.17"/>
  <path fill="#000000" d="M 36.59,59.97 L 36.17,62.05 34.47,63.25 32.39,62.83 31.19,61.08"/>
  <path fill="#000000" d="M 69.90,34.10 L 68.65,37.28 67.36,40.47 65.97,43.71 64.59,46.99 63.11,50.36 61.54,53.73 59.92,57.15 58.21,60.61 56.36,64.08 54.42,67.59 53.64,67.27 54.75,63.43 55.95,59.69 57.10,56.04 58.30,52.44 59.46,48.93 60.57,45.46 61.63,42.09 62.69,38.76 63.71,35.53 64.68,32.34"/>
  <path fill="#000000" d="M 64.50,32.76 L 69.90,34.10 64.91,31.65"/>
  <path fill="#000000" d="M 69.90,34.10 L 70.92,35.44 68.28,35.99"/>
</svg>