<svg xmlns="http://www.w3.org/2000/svg" width="92" height="111" viewBox="0 0 92 111">
  <path fill="#000000" d="M 29.66,13.26 L 21.76,74.66 15.94,76.69 24.49,9.84"/>
  <path fill="#000000" d="M 19.87,66.99 L 82.24,66.99 82.24,68.84 19.87,68.84"/>
  <path fill="#000000" d="M 82.24,66.99 L 71.15,67.91 76.69,62.37"/>
  <path fill="#000000" d="M 26.80,12.94 L 67.91,12.94 67.91,14.78 26.80,14.78"/>
  <path fill="#000000" d="M 70.64,13.95 L 70.09,25.55 69.39,36.08 68.65,45.51 67.82,53.92 66.94,61.22 65.97,67.50 64.91,72.72 63.76,76.92 62.42,80.25 60.66,82.74 56.73,78.82 57.47,77.71 58.49,75.17 59.51,71.43 60.52,66.53 61.45,60.48 62.32,53.31 63.16,45.05 63.85,35.67 64.54,25.23 65.14,13.72"/>
  <path fill="#000000" d="M 65.14,12.94 L 67.91,10.63 73.00,14.78 70.69,16.17 65.14,18.48"/>
  <path fill="#000000" d="M 60.66,82.74 L 59.83,83.53 58.95,84.22 58.07,84.82 57.10,85.33 56.13,85.79 55.12,86.16 54.05,86.49 52.99,86.67 51.93,86.81 50.82,86.86 50.82,81.31 51.51,81.27 52.16,81.17 52.81,81.08 53.45,80.90 54.01,80.67 54.56,80.43 55.12,80.11 55.67,79.74 56.23,79.33 56.73,78.82"/>
  <path fill="#000000" d="M 50.82,84.08 L 50.82,81.31 41.58,81.31 41.58,82.70"/>
</svg>