<svg xmlns="http://www.w3.org/2000/svg" width="92" height="111" viewBox="0 0 92 111">
  <path fill="#000000" d="M 36.17,5.87 L 38.30,6.88 40.33,7.99 42.18,9.29 43.89,10.72 45.51,12.29 46.94,14.00 48.23,15.80 49.39,17.74 50.40,19.77 51.24,21.90 45.92,23.42 45.46,21.58 44.91,19.73 44.21,17.97 43.43,16.26 42.46,14.60 41.40,12.98 40.19,11.37 38.81,9.75 37.38,8.18 35.71,6.56"/>
  <path fill="#000000" d="M 51.24,21.90 L 50.96,24.02 49.34,25.32 47.22,25.04 45.92,23.42"/>
  <path fill="#000000" d="M 7.39,31.42 L 84.55,31.42 84.55,33.26 7.39,33.26"/>
  <path fill="#000000" d="M 84.55,31.42 L 73.46,32.34 79.00,26.80"/>
  <path fill="#000000" d="M 19.54,40.70 L 22.18,43.20 24.62,45.78 26.89,48.60 28.97,51.47 30.91,54.47 32.71,57.57 34.33,60.75 35.80,64.08 37.14,67.45 38.30,70.92 32.99,72.35 32.11,69.07 31.14,65.79 30.03,62.60 28.83,59.41 27.44,56.32 25.96,53.27 24.35,50.27 22.64,47.26 20.79,44.26 18.90,41.26"/>
  <path fill="#000000" d="M 38.30,70.92 L 38.02,73.00 36.36,74.29 34.28,74.01 32.99,72.35"/>
  <path fill="#000000" d="M 72.12,42.13 L 70.50,45.51 68.75,49.06 66.94,52.71 65.05,56.55 63.06,60.48 60.94,64.59 58.72,68.88 56.36,73.27 53.87,77.75 51.19,82.37 50.40,82.05 52.25,77.02 54.10,72.21 55.95,67.59 57.75,63.16 59.46,58.86 61.12,54.75 62.74,50.82 64.22,47.03 65.65,43.43 66.99,39.96"/>
  <path fill="#000000" d="M 66.81,40.38 L 72.12,42.13 67.27,39.36"/>
  <path fill="#000000" d="M 72.12,42.13 L 73.00,43.57 70.32,43.89"/>
</svg>