<svg xmlns="http://www.w3.org/2000/svg" width="92" height="111" viewBox="0 0 92 111">
  <path fill="#000000" d="M 43.89,17.56 L 79.46,17.56 79.46,19.40 43.89,19.40"/>
  <path fill="#000000" d="M 79.46,17.56 L 68.38,18.48 73.92,12.94"/>
  <path fill="#000000" d="M 46.66,7.39 L 46.66,29.11 41.12,31.88 41.12,6.47"/>
  <path fill="#000000" d="M 46.66,7.39 L 48.05,8.32 45.74,9.70"/>
  <path fill="#000000" d="M 18.94,29.57 L 18.94,50.82 13.40,50.82 13.40,26.80"/>
  <path fill="#000000" d="M 13.40,50.82 L 14.51,52.48 16.17,53.59 17.83,52.48 18.94,50.82"/>
  <path fill="#000000" d="M 18.94,50.82 L 18.66,55.90 18.20,60.75 17.46,65.23 16.54,69.35 15.38,73.18 13.95,76.65 12.29,79.79 10.40,82.51 8.22,84.82 5.82,86.67 5.22,86.07 6.88,83.71 8.32,81.17 9.61,78.40 10.67,75.40 11.60,72.07 12.34,68.47 12.89,64.50 13.26,60.24 13.40,55.72 13.40,50.82"/>
  <path fill="#000000" d="M 16.17,29.57 L 80.39,29.57 80.39,31.42 16.17,31.42"/>
  <path fill="#000000" d="M 82.88,31.60 L 82.19,32.62 81.45,33.63 80.62,34.60 79.79,35.57 78.91,36.50 77.94,37.42 76.97,38.35 75.91,39.18 74.75,40.01 73.74,40.93 73.13,40.33 73.92,39.22 74.47,38.02 75.03,36.82 75.58,35.71 76.05,34.60 76.51,33.50 76.92,32.43 77.25,31.37 77.57,30.35 77.85,29.34"/>
  <path fill="#000000" d="M 77.62,29.57 L 80.39,27.26 85.47,31.42 83.16,32.80 77.62,35.11"/>
</svg>