<svg xmlns="http://www.w3.org/2000/svg" width="92" height="111" viewBox="0 0 92 111">
  <path fill="#000000" d="M 36.13,5.78 L 38.12,6.38 40.06,6.93 41.86,7.62 43.52,8.41 45.09,9.29 46.52,10.26 47.82,11.32 49.02,12.47 50.03,13.77 50.91,15.15 45.88,17.37 45.55,16.35 45.09,15.29 44.49,14.23 43.71,13.17 42.83,12.06 41.72,10.95 40.52,9.84 39.13,8.73 37.56,7.58 35.80,6.56"/>
  <path fill="#000000" d="M 50.91,15.15 L 50.96,17.28 49.53,18.80 47.40,18.80 45.88,17.37"/>
  <path fill="#000000" d="M 7.39,22.18 L 84.55,22.18 84.55,24.02 7.39,24.02"/>
  <path fill="#000000" d="M 84.55,22.18 L 73.46,23.10 79.00,17.56"/>
  <path fill="#000000" d="M 16.17,40.19 L 75.31,40.19 75.31,42.04 16.17,42.04"/>
  <path fill="#000000" d="M 75.31,40.19 L 64.22,41.12 69.76,35.57"/>
  <path fill="#000000" d="M 18.94,59.60 L 72.53,59.60 72.53,61.45 18.94,61.45"/>
  <path fill="#000000" d="M 72.53,59.60 L 61.45,60.52 66.99,54.98"/>
  <path fill="#000000" d="M 48.51,23.56 L 48.51,80.85 42.97,83.62 42.97,22.64"/>
  <path fill="#000000" d="M 48.51,23.56 L 49.90,24.49 47.59,25.87"/>
  <path fill="#000000" d="M 7.39,81.31 L 84.55,81.31 84.55,83.16 7.39,83.16"/>
  <path fill="#000000" d="M 84.55,81.31 L 73.46,82.24 79.00,76.69"/>
</svg>