<svg xmlns="http://www.w3.org/2000/svg" width="33" height="40" viewBox="0 0 33 40">
  <path fill="#000000" d="M 17.49,2.48 L 17.49,30.03 L 15.51,31.02 L 15.51,2.15 Z"/>
  <path fill="#000000" d="M 17.49,2.48 L 17.99,2.81 L 17.16,3.3 Z"/>
  <path fill="#000000" d="M 8.42,7.76 L 8.42,18.98 L 6.44,19.97 L 6.44,6.77 Z"/>
  <path fill="#000000" d="M 7.43,7.76 L 24.75,7.76 L 24.75,8.42 L 7.43,8.42 Z"/>
  <path fill="#000000" d="M 25.74,8.09 L 25.74,17.99 L 23.76,18.98 L 23.76,8.09 Z"/>
  <path fill="#000000" d="M 23.76,7.76 L 24.75,6.93 L 26.57,8.42 L 25.74,9.08 L 23.76,8.09 Z"/>
  <path fill="#000000" d="M 7.43,16.34 L 24.75,16.34 L 24.75,17 L 7.43,17 Z"/>
  <path fill="#000000" d="M 2.15,23.1 L 30.69,23.1 L 30.69,23.76 L 2.15,23.76 Z"/>
  <path fill="#000000" d="M 30.69,23.1 L 26.73,23.43 L 28.71,21.45 Z"/>
</svg>