<svg xmlns="http://www.w3.org/2000/svg" width="92" height="111" viewBox="0 0 92 111">
  <path fill="#000000" d="M 28.41,8.09 L 27.17,11.78 25.83,15.43 24.30,18.99 22.68,22.45 20.88,25.78 18.94,29.06 16.86,32.20 14.60,35.25 12.15,38.16 9.56,40.89 8.87,40.38 10.76,37.14 12.52,33.91 14.28,30.63 15.85,27.35 17.37,24.07 18.76,20.70 20.00,17.28 21.16,13.77 22.18,10.26 23.05,6.65"/>
  <path fill="#000000" d="M 22.92,7.07 L 28.41,8.09 23.24,5.87"/>
  <path fill="#000000" d="M 28.41,8.09 L 29.52,9.33 26.93,10.07"/>
  <path fill="#000000" d="M 20.79,20.33 L 55.90,20.33 55.90,22.18 20.79,22.18"/>
  <path fill="#000000" d="M 58.40,22.36 L 57.75,23.38 57.06,24.44 56.27,25.59 55.44,26.80 54.61,28.04 53.68,29.34 52.67,30.72 51.61,32.20 50.40,33.68 49.30,35.30 48.60,34.88 49.30,33.08 49.80,31.28 50.36,29.57 50.87,27.95 51.37,26.43 51.88,24.99 52.30,23.65 52.67,22.36 53.04,21.21 53.36,20.10"/>
  <path fill="#000000" d="M 53.13,20.33 L 55.90,18.02 60.98,22.18 58.67,23.56 53.13,25.87"/>
  <path fill="#000000" d="M 24.49,39.27 L 24.49,85.47 18.94,88.24 18.94,36.50"/>
  <path fill="#000000" d="M 21.71,39.27 L 69.76,39.27 69.76,41.12 21.71,41.12"/>
  <path fill="#000000" d="M 72.53,40.19 L 72.53,85.01 66.99,87.78 66.99,40.19"/>
  <path fill="#000000" d="M 66.99,39.27 L 69.76,36.96 74.84,41.12 72.53,42.97 66.99,40.19"/>
  <path fill="#000000" d="M 48.51,40.66 L 48.51,81.77 42.97,84.55 42.97,39.73"/>
  <path fill="#000000" d="M 48.51,40.66 L 49.90,41.58 47.59,42.97"/>
  <path fill="#000000" d="M 21.71,60.52 L 69.76,60.52 69.76,62.37 21.71,62.37"/>
  <path fill="#000000" d="M 21.71,82.24 L 69.76,82.24 69.76,84.08 21.71,84.08"/>
</svg>